<svg version="1.1" id="Layer_1" xmlns="http://www.w3.org/2000/svg" xmlns:xlink="http://www.w3.org/1999/xlink" x="0px" y="0px"
	 width="100%" viewBox="0 0 400 400" enable-background="new 0 0 400 400" xml:space="preserve">
<path fill="#010000" opacity="1.000000" stroke="none" 
	d="
M191.000000,401.000000 
	C127.353073,401.000000 64.206139,401.000000 1.029604,401.000000 
	C1.029604,267.728058 1.029604,134.456131 1.029604,1.092094 
	C134.230225,1.092094 267.460510,1.092094 400.845398,1.092094 
	C400.845398,134.333191 400.845398,267.666565 400.845398,401.000000 
	C331.122864,401.000000 261.311432,401.000000 191.000000,401.000000 
M294.217865,132.860565 
	C293.841003,133.242859 293.464172,133.625153 292.685120,134.388763 
	C292.384949,134.831161 292.084747,135.273560 291.833801,135.735367 
	C291.833801,135.735367 291.800507,135.776535 291.219513,135.880402 
	C290.996613,136.195129 290.773743,136.509857 290.227417,136.791138 
	C290.227417,136.791138 289.919983,136.897034 289.254028,136.921066 
	C288.524780,137.603683 287.795532,138.286316 286.471954,139.057739 
	C285.971008,139.361252 285.470062,139.664764 284.295166,139.992416 
	C283.516113,140.639786 282.737091,141.287155 281.590698,142.348587 
	C281.327454,142.818924 281.064178,143.289276 280.781738,143.926666 
	C280.781738,143.926666 280.759979,143.759888 280.091827,143.778809 
	C279.108490,144.318527 278.125122,144.858246 276.466278,145.457367 
	C273.985352,147.295288 271.504425,149.133209 268.805878,151.380966 
	C268.805878,151.380966 268.816711,151.844864 268.919006,151.934860 
	C268.919006,151.934860 268.871796,151.807037 268.373230,151.763306 
	C268.214142,151.814926 268.055023,151.866562 267.322205,151.951981 
	C266.905701,152.306671 266.489166,152.661346 265.608673,153.164429 
	C265.314148,153.311661 265.057526,153.508347 264.327545,153.778931 
	C264.170227,153.845032 264.012939,153.911133 262.936737,153.946884 
	C246.965332,154.013870 230.993927,154.080841 214.248337,154.000732 
	C212.632050,154.449036 211.015747,154.897339 208.920547,155.995987 
	C208.593613,158.271454 208.011459,160.543823 207.983795,162.822922 
	C207.862885,172.786850 207.902786,182.752701 207.319885,193.040588 
	C206.490250,193.966232 205.660614,194.891861 204.126846,195.952896 
	C201.378860,197.944962 198.630859,199.937027 195.413071,202.078293 
	C195.413071,202.078293 195.059280,202.421555 194.361557,202.356934 
	C189.755051,205.232178 185.144745,208.101364 180.542801,210.983917 
	C170.059937,217.550125 169.666641,217.149948 164.648712,205.516907 
	C161.422440,198.037415 157.020660,191.064957 153.069519,183.214813 
	C152.420425,182.435852 151.771317,181.656876 151.016235,180.145432 
	C149.423355,176.128510 148.189651,171.917282 146.147888,168.143219 
	C143.518753,163.283401 140.767273,158.270233 137.003052,154.344803 
	C135.340729,152.611282 130.783585,152.473465 128.045166,153.294342 
	C125.467705,154.066956 123.209694,156.788345 121.415840,159.117996 
	C116.951653,164.915543 117.209198,173.883957 122.069588,176.520203 
	C126.018837,178.662262 126.667961,181.343674 125.381287,185.104324 
	C123.695480,190.031555 124.930511,193.986328 128.605362,197.717438 
	C131.832474,200.993942 134.674545,204.723877 137.257767,208.543594 
	C141.513138,214.835831 145.540405,221.293854 149.342514,227.867844 
	C149.876160,228.790543 149.059830,231.470230 148.067337,232.128006 
	C144.067596,234.778900 139.260178,236.374146 135.659317,239.429642 
	C128.350830,245.631180 121.557281,252.451447 114.702560,259.170776 
	C111.371902,262.435638 108.824059,266.294128 111.212288,271.200409 
	C113.588158,276.081329 117.707237,278.730743 123.169884,278.680481 
	C133.612076,278.584381 139.692871,271.869171 145.619827,263.920410 
	C148.432053,261.678650 151.244278,259.436920 154.682617,257.025757 
	C155.113098,256.994781 155.543594,256.963837 156.456741,257.506226 
	C158.993378,256.770386 161.529999,256.034546 164.674332,255.072952 
	C165.095886,254.980331 165.517441,254.887711 166.343918,255.391068 
	C171.568436,253.072159 175.717300,254.982391 179.573975,258.561951 
	C180.110184,259.059601 181.435074,258.707520 182.995117,258.806915 
	C183.733307,259.085693 184.471481,259.364502 185.138214,260.365479 
	C185.788208,260.900909 186.438202,261.436371 187.481476,262.409882 
	C187.987106,262.704987 188.492737,263.000092 189.280823,263.646210 
	C189.522324,263.853912 189.802292,263.951904 190.554993,263.990936 
	C190.554993,263.990936 190.960785,264.153687 191.096848,264.787872 
	C192.826294,268.732208 195.804153,267.062714 198.448318,266.208221 
	C201.428253,270.017700 206.242264,272.417694 205.291153,278.343903 
	C205.172592,279.082581 207.588516,280.228027 208.972687,281.983765 
	C210.765472,282.654388 212.554306,283.898956 214.351608,283.911255 
	C253.216171,284.177826 292.081696,284.319702 330.947144,284.364288 
	C331.675995,284.365112 332.406586,282.897461 333.536865,281.870880 
	C333.788605,281.674347 333.985107,281.432861 334.881042,280.853455 
	C335.250854,278.990692 335.936493,277.128937 335.942566,275.264984 
	C336.018555,251.961716 335.921143,228.657791 336.025085,205.354752 
	C336.094788,189.735703 336.472565,174.117874 336.503174,158.499115 
	C336.505432,157.342880 334.814880,156.183319 333.420013,154.755630 
	C332.953735,154.450302 332.487488,154.144974 331.610870,153.235413 
	C328.301758,153.074417 324.993713,152.884750 321.683258,152.758636 
	C315.593323,152.526596 309.502960,152.294006 303.410828,152.136826 
	C300.110626,152.051666 296.806396,152.121628 293.219055,152.121628 
	C293.571350,150.113770 293.766998,148.998703 294.396790,147.602509 
	C294.851929,147.359619 295.307098,147.116730 296.500916,146.882492 
	C296.992279,145.911591 297.483643,144.940689 297.998260,144.001801 
	C297.998260,144.001801 297.966003,143.977158 298.691742,143.935242 
	C299.709290,142.239365 304.622375,144.548889 302.880188,139.268829 
	C303.022156,138.845184 303.164093,138.421539 303.654480,137.738754 
	C303.861847,137.514420 303.967957,137.249496 304.029907,136.360550 
	C304.354095,135.906631 304.678284,135.452713 305.805389,135.026230 
	C311.949951,134.581421 314.515503,131.797104 315.000244,124.998703 
	C315.000244,124.998703 315.029358,125.016655 315.685730,124.926849 
	C316.097870,124.237808 316.510040,123.548767 316.994751,122.268478 
	C317.101685,121.886398 317.208618,121.504311 317.911163,121.048737 
	C318.277008,120.361710 318.642853,119.674683 319.086365,118.349594 
	C319.160431,117.927505 319.234497,117.505409 319.875610,116.918365 
	C320.246521,116.273415 320.617432,115.628464 321.000000,115.000000 
	C321.000000,115.000000 320.983582,114.988388 321.674377,114.932610 
	C322.776581,113.607430 323.878754,112.282242 325.228424,110.548386 
	C325.438629,110.297615 325.698242,110.118416 326.737518,110.006775 
	C327.812927,108.980606 328.888306,107.954430 330.211731,106.525696 
	C330.417084,106.274284 330.673645,106.096985 331.721710,106.002258 
	C340.091949,102.496910 345.831635,96.149796 350.742920,88.819351 
	C344.906647,88.753380 341.583618,92.594780 337.850861,96.552841 
	C337.638733,96.789505 337.380859,96.954727 336.283173,97.009697 
	C333.024872,97.314819 330.091187,98.002693 329.800171,102.723389 
	C328.842682,103.472878 327.885162,104.222366 326.511292,105.175560 
	C326.251617,105.362823 326.070587,105.608124 325.705627,106.361877 
	C325.423798,106.559998 325.141968,106.758125 324.496246,107.133659 
	C324.266418,107.286430 324.090820,107.486717 323.461395,108.099052 
	C322.645416,108.733925 321.829407,109.368790 320.278198,109.999046 
	C318.210785,111.711494 316.143372,113.423935 313.894531,115.705719 
	C313.336914,116.500595 312.779266,117.295479 311.804199,118.529785 
	C311.204163,119.069435 310.604126,119.609077 309.545959,120.239052 
	C309.257141,120.397102 309.063141,120.633125 308.516968,121.189476 
	C308.397003,121.488907 308.277039,121.788330 307.906006,122.271965 
	C307.906006,122.271965 307.842316,122.576797 307.266998,122.827110 
	C307.040588,123.169724 306.814178,123.512329 306.119629,123.942291 
	C305.829437,124.074615 305.558014,124.238159 304.654022,124.290352 
	C304.122345,124.858322 303.590668,125.426300 302.707977,126.352562 
	C302.471252,126.588715 302.234558,126.824867 301.348511,127.126869 
	C300.573914,128.088608 299.799347,129.050354 299.004242,129.995239 
	C299.004242,129.995239 299.002747,130.021149 298.408020,129.978851 
	C297.957977,130.324203 297.507965,130.669556 296.636597,131.363007 
	C296.345123,131.802734 296.053650,132.242462 295.696106,132.815918 
	C295.696106,132.815918 295.719788,132.668625 295.237457,132.624954 
	C295.237457,132.624954 294.776398,132.784607 294.217865,132.860565 
M110.162888,254.806580 
	C119.160889,252.068741 123.769325,245.868042 124.725357,236.632675 
	C125.878410,225.494003 120.221077,219.031403 109.931648,215.767654 
	C112.778381,214.129639 115.222969,213.009766 117.344261,211.450150 
	C124.509674,206.182007 125.268478,195.950424 118.350716,190.360199 
	C115.044548,187.688507 110.471626,185.452194 106.325111,185.167908 
	C94.550995,184.360611 82.701118,184.643402 70.880638,184.556076 
	C69.965401,184.549316 69.046761,185.003128 66.668053,185.624954 
	C68.211128,188.219543 69.425880,190.138870 70.509216,192.129700 
	C71.162079,193.329483 72.073082,194.637711 72.080750,195.901978 
	C72.180618,212.395966 72.174843,228.891037 72.065048,245.384979 
	C72.056511,246.666550 71.416130,248.617920 70.476387,249.098602 
	C67.039337,250.856659 67.536263,253.283630 68.612122,257.213165 
	C82.257530,256.471619 95.818939,255.734680 110.162888,254.806580 
z"/>
<path fill="#E70303" opacity="1.000000" stroke="none" 
	d="
M305.305420,124.432915 
	C305.558014,124.238159 305.829437,124.074615 306.685242,123.831268 
	C307.448029,123.339096 307.645172,122.957939 307.842285,122.576797 
	C307.842316,122.576797 307.906006,122.271965 308.368439,122.223221 
	C312.385559,124.175117 312.404388,127.097778 308.563568,129.126007 
	C305.556763,130.713791 302.902435,132.250656 301.957367,135.868561 
	C301.665222,136.986908 300.383942,137.921310 299.411102,138.775360 
	C292.783417,144.593872 286.432648,150.623016 283.054565,159.050018 
	C283.044189,159.036453 283.047974,159.054489 282.727295,159.070465 
	C281.990143,159.502106 281.573608,159.917770 280.961548,160.594940 
	C275.478119,166.806808 270.190186,172.757187 264.576904,178.809814 
	C262.809875,180.189758 261.368195,181.467453 259.591064,182.842163 
	C256.818665,184.971573 254.381775,187.003998 251.615402,189.065094 
	C250.121002,190.289368 248.956085,191.484985 247.459259,192.778992 
	C242.389084,196.776031 237.771332,200.833664 232.885117,204.537109 
	C224.981644,210.527435 216.901718,216.284973 208.816559,221.961304 
	C208.563599,222.010071 208.390381,222.238388 208.222595,222.621460 
	C208.228058,222.776215 208.093353,223.055115 207.734848,223.073898 
	C201.116943,227.053207 194.594574,230.660461 188.669769,235.070526 
	C182.348801,239.775482 182.578995,241.010941 187.732132,247.248993 
	C190.869247,251.046616 193.827011,254.992416 197.839432,260.115356 
	C194.738693,260.506409 192.081940,261.702240 190.624847,260.849121 
	C187.421051,258.973297 184.732574,256.157410 181.999191,253.551697 
	C177.564819,249.324463 173.252762,248.868866 167.637238,251.540344 
	C164.870239,252.856689 161.694901,253.483704 158.632492,253.973480 
	C152.946045,254.882935 147.875275,256.456635 143.858490,261.133209 
	C140.024963,265.596436 135.708908,269.750031 131.113525,273.425262 
	C126.306198,277.269958 121.259163,277.003906 116.402008,273.683868 
	C112.540764,271.044586 111.540176,266.994812 114.389969,263.367981 
	C123.471458,251.810349 133.904968,241.806580 147.501038,235.571564 
	C149.123352,234.827591 150.552139,233.607300 151.967346,232.478348 
	C154.241104,230.664444 154.262238,228.916901 152.196884,226.636536 
	C149.350388,223.493668 146.742706,220.092804 144.359406,216.580765 
	C139.360611,209.214539 134.482224,201.761612 129.764832,194.212784 
	C128.531479,192.239166 126.980812,189.511887 127.456200,187.597748 
	C128.989838,181.422607 127.725914,176.779495 122.798988,172.623138 
	C121.284515,171.345551 119.962288,167.725754 120.704460,166.295029 
	C122.705978,162.436630 125.513176,158.812103 128.662109,155.782196 
	C132.152008,152.424210 134.621094,153.328003 137.072235,158.268860 
	C137.741699,159.058868 138.385574,159.520569 139.316406,160.135803 
	C140.408859,161.513535 141.214355,162.737732 142.113251,164.190598 
	C142.394928,164.705139 142.650543,164.904724 143.094086,165.269775 
	C143.478745,166.012100 143.742844,166.502686 144.015869,167.287476 
	C144.291946,168.084045 144.559143,168.586426 144.849426,169.407776 
	C144.911896,170.151291 144.951279,170.575867 145.080933,171.224396 
	C145.346176,171.727356 145.577377,171.947189 145.879578,172.337219 
	C145.894363,172.566574 145.960159,173.021500 145.985184,173.313889 
	C146.295074,174.098083 146.579941,174.589905 146.883377,175.314316 
	C146.901947,175.546921 146.968353,176.008881 146.993820,176.305740 
	C147.342758,177.072083 147.666214,177.541580 148.111389,178.301865 
	C148.514572,179.377625 148.796066,180.162567 149.093384,181.273026 
	C149.743942,182.059250 150.378662,182.519974 151.220627,183.106354 
	C151.682190,183.443512 151.870209,183.703033 152.086334,184.228027 
	C152.355713,184.715866 152.582031,184.932709 152.898666,185.453918 
	C153.009216,186.528320 153.080780,187.244812 153.216690,188.183701 
	C153.455444,188.686554 153.705444,188.854614 154.259048,188.941162 
	C154.487030,188.972015 154.942490,189.037170 154.980682,189.328033 
	C155.357788,190.060730 155.696701,190.502548 156.144302,191.208282 
	C156.520554,191.976196 156.788116,192.480209 157.037018,193.382660 
	C158.000641,195.531723 158.982895,197.282364 159.981262,199.022278 
	C159.997375,199.011566 159.967728,199.023331 159.989685,199.318420 
	C160.309525,200.101105 160.607391,200.588684 160.964600,201.439224 
	C163.351395,206.535110 165.678848,211.268021 168.104126,216.221725 
	C168.390747,216.716934 168.640945,216.913025 168.973679,217.019623 
	C168.994797,217.008453 168.967850,217.048111 169.073807,217.259705 
	C169.370361,217.736710 169.620300,217.922165 169.940567,218.040436 
	C169.951569,218.053238 169.954147,218.086884 170.021515,218.404266 
	C171.102905,218.524734 172.116943,218.327805 173.464310,218.058533 
	C175.861923,216.663254 177.926178,215.340286 180.169312,214.233337 
	C180.892441,213.960983 181.436676,213.472626 182.106934,212.779480 
	C182.444672,212.324524 182.702591,212.138351 183.323059,211.974075 
	C184.123291,211.312531 184.607147,210.693069 185.372650,209.917358 
	C187.105927,208.846268 188.557556,207.931442 190.231461,206.915436 
	C190.730469,206.626175 190.938583,206.380051 191.398041,206.008759 
	C192.816833,205.302765 193.915680,204.663925 195.326996,203.981903 
	C196.129547,203.334488 196.619629,202.730270 197.326935,202.083527 
	C197.544159,202.041016 197.978134,201.953613 198.202469,201.864197 
	C198.706467,201.590805 198.902573,201.341171 199.009720,201.013016 
	C199.004333,201.000153 199.024811,201.023010 199.319183,200.998138 
	C200.067795,200.642517 200.522018,200.311737 200.986359,199.990295 
	C200.996460,199.999634 200.987671,199.975189 201.209183,199.877441 
	C201.707855,199.591324 201.902237,199.339172 202.008575,199.011688 
	C202.003296,199.000168 202.021988,199.021545 202.399170,199.016418 
	C204.196167,198.018250 205.615952,197.025177 207.174271,195.753784 
	C207.632263,194.941040 207.951721,194.406586 208.389221,193.871704 
	C208.507248,193.871277 208.740662,193.906570 209.119186,193.910797 
	C211.655396,192.281357 213.813065,190.647659 216.128418,188.935684 
	C216.286102,188.857407 216.637390,188.833725 217.031418,188.878418 
	C218.930878,187.601303 220.436325,186.279480 221.958282,184.973450 
	C221.974823,184.989227 221.972260,184.943665 222.327026,184.957581 
	C223.741425,184.250397 224.801071,183.529297 225.831085,182.851990 
	C225.801468,182.895798 225.817810,182.791290 226.186829,182.824753 
	C230.686584,179.555435 234.817322,176.252655 238.962311,172.973419 
	C238.976578,172.996948 238.961639,172.949677 239.269104,172.941299 
	C240.023117,172.571609 240.469666,172.210297 240.897202,171.894836 
	C240.878189,171.940689 240.849136,171.845749 241.224503,171.886871 
	C243.046494,170.611740 244.493118,169.295517 245.952515,167.968353 
	C245.965271,167.957397 245.995758,167.943176 246.364548,167.954529 
	C249.437836,165.880188 252.142334,163.794525 254.959656,161.519318 
	C255.279236,161.101654 255.535156,160.966736 256.163239,160.928650 
	C256.964417,160.571152 257.442566,160.210037 257.907837,159.896881 
	C257.894958,159.944839 257.848358,159.857147 258.195068,159.869720 
	C259.365448,158.960861 260.189117,158.039413 261.023071,157.060608 
	C261.033386,157.003250 261.149902,157.001831 261.520264,156.991592 
	C263.938110,155.668793 265.985596,154.356232 268.029938,153.029877 
	C268.026825,153.016098 268.045288,153.023239 268.276306,152.894501 
	C268.628845,152.446198 268.750336,152.126617 268.871826,151.807037 
	C268.871796,151.807037 268.919006,151.934860 269.320007,151.953522 
	C277.114319,151.957809 279.660950,150.063263 280.759979,143.759888 
	C280.759979,143.759888 280.781738,143.926666 281.151245,143.930389 
	C282.384674,143.328583 283.248596,142.723053 284.470276,142.085495 
	C286.218750,141.042358 287.609497,140.031235 289.129700,138.757553 
	C289.479401,137.962326 289.699677,137.429672 289.919983,136.897034 
	C289.919983,136.897034 290.227417,136.791138 290.701416,136.780396 
	C291.383789,136.438629 291.592163,136.107574 291.800507,135.776535 
	C291.800507,135.776535 291.833801,135.735367 292.174469,135.822113 
	C293.316345,135.259613 294.117523,134.610382 294.935303,133.960434 
	C294.951843,133.959732 294.969940,133.936539 295.215210,133.812866 
	C295.546906,133.349014 295.633331,133.008820 295.719788,132.668625 
	C295.719788,132.668625 295.696106,132.815918 296.120728,132.861725 
	C298.032196,131.942307 299.519043,130.977066 301.003235,130.005737 
	C301.000549,129.999649 301.010529,130.003235 301.233582,129.901505 
	C301.735535,129.600906 301.916443,129.335281 301.999664,129.001450 
	C302.000000,129.000000 302.002869,129.000122 302.358185,128.999054 
	C305.251953,128.752380 306.600342,127.690872 305.450317,124.815285 
	C305.408569,124.685440 305.305420,124.432915 305.305420,124.432915 
z"/>
<path fill="#F8F8F8" opacity="1.000000" stroke="none" 
	d="
M109.771622,254.902145 
	C95.818939,255.734680 82.257530,256.471619 68.612122,257.213165 
	C67.536263,253.283630 67.039337,250.856659 70.476387,249.098602 
	C71.416130,248.617920 72.056511,246.666550 72.065048,245.384979 
	C72.174843,228.891037 72.180618,212.395966 72.080750,195.901978 
	C72.073082,194.637711 71.162079,193.329483 70.509216,192.129700 
	C69.425880,190.138870 68.211128,188.219543 66.668053,185.624954 
	C69.046761,185.003128 69.965401,184.549316 70.880638,184.556076 
	C82.701118,184.643402 94.550995,184.360611 106.325111,185.167908 
	C110.471626,185.452194 115.044548,187.688507 118.350716,190.360199 
	C125.268478,195.950424 124.509674,206.182007 117.344261,211.450150 
	C115.222969,213.009766 112.778381,214.129639 109.931648,215.767654 
	C120.221077,219.031403 125.878410,225.494003 124.725357,236.632675 
	C123.769325,245.868042 119.160889,252.068741 109.771622,254.902145 
M93.157539,234.502258 
	C93.157539,239.723923 93.157539,244.945587 93.157539,250.160431 
	C99.982887,250.070953 100.888344,249.365875 101.028969,243.477188 
	C101.179550,237.171646 101.118530,230.856903 100.980545,224.549866 
	C100.858376,218.965927 99.286644,217.914932 93.157539,219.210175 
	C93.157539,223.927734 93.157539,228.717407 93.157539,234.502258 
M93.138893,202.463287 
	C93.138893,205.711044 93.138893,208.958817 93.138893,212.143967 
	C99.647614,212.599426 100.800468,211.810181 101.146507,206.465912 
	C101.369553,203.021149 101.433418,199.524750 101.106979,196.095444 
	C100.619720,190.976456 98.919434,190.018448 93.138901,191.220917 
	C93.138901,194.602753 93.138901,198.050934 93.138893,202.463287 
z"/>
<path fill="#A21115" opacity="1.000000" stroke="none" 
	d="
M137.046616,157.940552 
	C134.621094,153.328003 132.152008,152.424210 128.662109,155.782196 
	C125.513176,158.812103 122.705978,162.436630 120.704460,166.295029 
	C119.962288,167.725754 121.284515,171.345551 122.798988,172.623138 
	C127.725914,176.779495 128.989838,181.422607 127.456200,187.597748 
	C126.980812,189.511887 128.531479,192.239166 129.764832,194.212784 
	C134.482224,201.761612 139.360611,209.214539 144.359406,216.580765 
	C146.742706,220.092804 149.350388,223.493668 152.196884,226.636536 
	C154.262238,228.916901 154.241104,230.664444 151.967346,232.478348 
	C150.552139,233.607300 149.123352,234.827591 147.501038,235.571564 
	C133.904968,241.806580 123.471458,251.810349 114.389969,263.367981 
	C111.540176,266.994812 112.540764,271.044586 116.402008,273.683868 
	C121.259163,277.003906 126.306198,277.269958 131.113525,273.425262 
	C135.708908,269.750031 140.024963,265.596436 143.858490,261.133209 
	C147.875275,256.456635 152.946045,254.882935 158.632492,253.973480 
	C161.694901,253.483704 164.870239,252.856689 167.637238,251.540344 
	C173.252762,248.868866 177.564819,249.324463 181.999191,253.551697 
	C184.732574,256.157410 187.421051,258.973297 190.624847,260.849121 
	C192.081940,261.702240 194.738693,260.506409 197.839432,260.115356 
	C193.827011,254.992416 190.869247,251.046616 187.732132,247.248993 
	C182.578995,241.010941 182.348801,239.775482 188.669769,235.070526 
	C194.594574,230.660461 201.116943,227.053207 207.760101,223.354385 
	C208.180542,223.800751 208.217255,223.985413 208.190948,224.473969 
	C208.052841,225.184631 207.977753,225.591415 207.545898,225.974548 
	C202.651367,228.682358 198.031708,231.287796 193.593033,234.171814 
	C184.649536,239.982803 184.654480,240.073563 191.261612,248.430939 
	C196.159714,254.626541 201.165909,260.736694 206.026825,267.201263 
	C205.886993,267.734039 205.844284,267.950470 205.437729,268.140076 
	C200.932205,264.787842 196.015808,264.223724 190.960785,264.153687 
	C190.960785,264.153687 190.554993,263.990936 190.216721,263.761536 
	C189.628357,263.292297 189.334991,263.213348 188.998367,263.295227 
	C188.492737,263.000092 187.987106,262.704987 187.267426,261.858521 
	C186.438812,260.752533 185.824234,260.197906 185.209671,259.643280 
	C184.471481,259.364502 183.733307,259.085693 182.577454,258.449463 
	C176.513351,250.614197 173.523148,250.006424 165.938995,254.795074 
	C165.517441,254.887711 165.095886,254.980331 163.982285,255.140518 
	C160.851517,255.783005 158.412796,256.357941 155.974075,256.932861 
	C155.543594,256.963837 155.113098,256.994781 154.016998,257.076904 
	C150.530289,259.398499 147.709213,261.668915 144.888153,263.939331 
	C139.692871,271.869171 133.612076,278.584381 123.169884,278.680481 
	C117.707237,278.730743 113.588158,276.081329 111.212288,271.200409 
	C108.824059,266.294128 111.371902,262.435638 114.702560,259.170776 
	C121.557281,252.451447 128.350830,245.631180 135.659317,239.429642 
	C139.260178,236.374146 144.067596,234.778900 148.067337,232.128006 
	C149.059830,231.470230 149.876160,228.790543 149.342514,227.867844 
	C145.540405,221.293854 141.513138,214.835831 137.257767,208.543594 
	C134.674545,204.723877 131.832474,200.993942 128.605362,197.717438 
	C124.930511,193.986328 123.695480,190.031555 125.381287,185.104324 
	C126.667961,181.343674 126.018837,178.662262 122.069588,176.520203 
	C117.209198,173.883957 116.951653,164.915543 121.415840,159.117996 
	C123.209694,156.788345 125.467705,154.066956 128.045166,153.294342 
	C130.783585,152.473465 135.340729,152.611282 137.003052,154.344803 
	C140.767273,158.270233 143.518753,163.283401 146.147888,168.143219 
	C148.189651,171.917282 149.423355,176.128510 150.999405,180.580994 
	C150.982574,181.016541 150.843552,181.154449 150.552124,181.098572 
	C149.866302,181.010956 149.471939,180.979233 149.077560,180.947525 
	C148.796066,180.162567 148.514572,179.377625 148.094299,178.001740 
	C147.626465,176.943512 147.297409,176.476196 146.968353,176.008881 
	C146.968353,176.008881 146.901947,175.546921 146.897369,175.009216 
	C146.581909,173.988159 146.271027,173.504837 145.960159,173.021500 
	C145.960159,173.021500 145.894363,172.566574 145.818634,172.095062 
	C145.574875,171.315979 145.324127,171.108276 144.990662,171.000427 
	C144.951279,170.575867 144.911896,170.151291 144.876068,169.103928 
	C144.588730,167.985168 144.297852,167.489227 144.006958,166.993271 
	C143.742844,166.502686 143.478745,166.012100 143.002914,165.039703 
	C142.603806,164.269043 142.346680,164.070374 142.019836,163.961929 
	C141.214355,162.737732 140.408859,161.513535 139.195557,159.869080 
	C138.207352,158.946060 137.626984,158.443314 137.046616,157.940552 
z"/>
<path fill="#240201" opacity="1.000000" stroke="none" 
	d="
M333.136383,282.114960 
	C332.406586,282.897461 331.675995,284.365112 330.947144,284.364288 
	C292.081696,284.319702 253.216171,284.177826 214.351608,283.911255 
	C212.554306,283.898956 210.765472,282.654388 208.963501,281.517761 
	C208.954315,281.051727 209.079971,280.923798 209.306152,280.978302 
	C209.532333,281.032806 209.997574,281.042114 209.999359,281.017395 
	C210.001129,280.992706 209.953903,281.007721 210.228943,281.337769 
	C210.987427,281.776306 211.470917,281.980072 211.954300,281.979797 
	C252.265091,281.957458 292.575867,281.919281 332.947968,281.941650 
	C333.009277,282.001038 333.136383,282.114960 333.136383,282.114960 
z"/>
<path fill="#A21115" opacity="1.000000" stroke="none" 
	d="
M179.990433,214.017319 
	C177.926178,215.340286 175.861923,216.663254 173.066284,218.027313 
	C171.541336,218.074570 170.747742,218.080734 169.954147,218.086884 
	C169.954147,218.086884 169.951569,218.053238 169.848083,217.818909 
	C169.553070,217.308243 169.294159,217.129410 168.967850,217.048111 
	C168.967850,217.048111 168.994797,217.008453 168.882202,216.793945 
	C168.584793,216.294724 168.330353,216.101898 168.006287,216.000946 
	C165.678848,211.268021 163.351395,206.535110 160.970932,201.133636 
	C160.601196,199.984497 160.284454,199.503906 159.967728,199.023331 
	C159.967728,199.023331 159.997375,199.011566 159.958527,198.672424 
	C158.965027,196.550262 158.010345,194.767242 157.055679,192.984207 
	C156.788116,192.480209 156.520554,191.976196 156.115234,190.915497 
	C155.632477,189.918243 155.287491,189.477707 154.942490,189.037170 
	C154.942490,189.037170 154.487030,188.972015 154.157761,188.744873 
	C153.654083,188.270325 153.428696,188.084854 153.152328,187.961288 
	C153.080780,187.244812 153.009216,186.528320 152.920258,185.213013 
	C152.902847,184.614197 152.859772,184.133820 152.931030,184.066406 
	C153.002274,183.998993 153.145767,183.865234 153.145767,183.865234 
	C157.020660,191.064957 161.422440,198.037415 164.648712,205.516907 
	C169.666641,217.149948 170.059937,217.550125 180.542801,210.983917 
	C185.144745,208.101364 189.755051,205.232178 194.704529,202.654022 
	C195.036499,203.309113 195.025513,203.667099 195.014526,204.025101 
	C193.915680,204.663925 192.816833,205.302765 191.161346,206.089600 
	C190.307968,206.422150 190.109467,206.681839 190.009201,207.016602 
	C188.557556,207.931442 187.105927,208.846268 185.087128,210.006378 
	C184.015518,210.839828 183.511093,211.427994 183.006683,212.016159 
	C182.702591,212.138351 182.444672,212.324524 181.809616,212.803497 
	C180.921005,213.360657 180.455719,213.688980 179.990433,214.017319 
z"/>
<path fill="#BE120F" opacity="1.000000" stroke="none" 
	d="
M283.064911,159.063568 
	C286.432648,150.623016 292.783417,144.593872 299.411102,138.775360 
	C300.383942,137.921310 301.665222,136.986908 301.957367,135.868561 
	C302.902435,132.250656 305.556763,130.713791 308.563568,129.126007 
	C312.404388,127.097778 312.385559,124.175117 308.493988,122.131119 
	C308.277039,121.788330 308.397003,121.488907 308.971222,121.022095 
	C309.731110,120.711792 309.923981,120.476456 310.004089,120.148712 
	C310.604126,119.609077 311.204163,119.069435 312.379456,118.300812 
	C317.677277,118.013748 315.685486,120.830215 315.059937,123.377945 
	C315.032257,124.142456 315.030823,124.579552 315.029358,125.016655 
	C315.029358,125.016655 315.000244,124.998703 314.717285,125.181229 
	C311.290375,128.575439 308.146423,131.787109 305.002441,134.998779 
	C304.678284,135.452713 304.354095,135.906631 303.788635,136.750671 
	C303.283600,137.374908 303.203156,137.660614 303.306091,137.997894 
	C303.164093,138.421539 303.022156,138.845184 302.538757,139.750580 
	C300.786865,141.480606 299.376434,142.728882 297.966003,143.977158 
	C297.966003,143.977158 297.998260,144.001801 297.703003,144.123886 
	C296.859253,145.121933 296.310760,145.997894 295.762238,146.873856 
	C295.307098,147.116730 294.851929,147.359619 293.806519,147.719894 
	C291.877594,149.870361 290.538940,151.903427 289.087524,154.236115 
	C289.009369,154.960892 289.043976,155.386032 288.767609,155.978516 
	C286.659363,157.118423 284.862122,158.091003 283.064911,159.063568 
z"/>
<path fill="#240201" opacity="1.000000" stroke="none" 
	d="
M333.911316,155.025299 
	C334.814880,156.183319 336.505432,157.342880 336.503174,158.499115 
	C336.472565,174.117874 336.094788,189.735703 336.025085,205.354752 
	C335.921143,228.657791 336.018555,251.961716 335.942566,275.264984 
	C335.936493,277.128937 335.250854,278.990692 334.455139,280.945099 
	C334.029266,281.036743 333.928101,280.930725 333.962830,280.609985 
	C334.015015,279.861328 334.032471,279.433441 334.022034,279.007751 
	C333.994141,279.010010 334.026520,279.055603 334.293762,278.729248 
	C334.690948,277.753448 334.934906,277.103973 334.934540,276.454620 
	C334.911224,237.970459 334.867706,199.486282 334.893311,160.651276 
	C334.670197,159.176910 334.379913,158.053406 334.105347,156.609039 
	C334.051117,155.867233 333.981201,155.446274 333.911316,155.025299 
z"/>
<path fill="#7B1A1E" opacity="1.000000" stroke="none" 
	d="
M315.086212,123.050537 
	C315.685486,120.830215 317.677277,118.013748 312.588196,118.081093 
	C312.779266,117.295479 313.336914,116.500595 314.326965,115.360077 
	C316.844086,113.344177 318.928741,111.673912 321.013428,110.003647 
	C321.829407,109.368790 322.645416,108.733925 323.931427,107.883469 
	C324.681915,107.512985 324.834808,107.275780 324.860138,106.956253 
	C325.141968,106.758125 325.423798,106.559998 326.064728,106.061363 
	C326.710724,105.573814 326.878662,105.310814 326.927673,104.971848 
	C327.885162,104.222366 328.842682,103.472878 330.299622,102.377029 
	C332.891754,100.369949 334.984467,98.709229 337.077179,97.048508 
	C337.380859,96.954727 337.638733,96.789505 338.291565,96.325081 
	C339.334351,96.166786 339.936462,96.236252 341.263214,96.389320 
	C337.519348,99.886574 334.250397,102.940186 330.981445,105.993797 
	C330.673645,106.096985 330.417084,106.274284 329.763672,106.774673 
	C328.212799,108.019356 327.110016,109.015060 326.007233,110.010773 
	C325.698242,110.118416 325.438629,110.297615 324.767395,110.801399 
	C323.198792,112.365738 322.091187,113.677055 320.983582,114.988388 
	C320.983582,114.988388 321.000000,115.000000 320.665039,115.039383 
	C319.989563,115.746948 319.649048,116.415131 319.308533,117.083313 
	C319.234497,117.505409 319.160431,117.927505 318.778870,118.784592 
	C318.086090,119.853806 317.700806,120.488014 317.315521,121.122223 
	C317.208618,121.504311 317.101685,121.886398 316.651794,122.587036 
	C315.901306,122.953911 315.493774,123.002220 315.086212,123.050537 
z"/>
<path fill="#240201" opacity="1.000000" stroke="none" 
	d="
M331.351562,105.998024 
	C334.250397,102.940186 337.519348,99.886574 341.263214,96.389320 
	C339.936462,96.236252 339.334351,96.166786 338.411224,96.126419 
	C341.583618,92.594780 344.906647,88.753380 350.742920,88.819351 
	C345.831635,96.149796 340.091949,102.496910 331.351562,105.998024 
z"/>
<path fill="#240201" opacity="1.000000" stroke="none" 
	d="
M289.200287,153.936523 
	C290.538940,151.903427 291.877594,149.870361 293.589447,147.860443 
	C293.766998,148.998703 293.571350,150.113770 293.219055,152.121628 
	C296.806396,152.121628 300.110626,152.051666 303.410828,152.136826 
	C309.502960,152.294006 315.593323,152.526596 321.683258,152.758636 
	C324.993713,152.884750 328.301758,153.074417 331.350403,153.607605 
	C317.126709,153.965378 303.163483,153.950943 289.200287,153.936523 
z"/>
<path fill="#240201" opacity="1.000000" stroke="none" 
	d="
M191.028809,264.470764 
	C196.015808,264.223724 200.932205,264.787842 205.505722,268.451447 
	C206.657150,269.449432 207.376755,270.109253 208.060257,271.109680 
	C208.396332,272.014923 208.768524,272.579559 208.927551,273.449280 
	C208.836258,276.144226 208.958115,278.533997 209.079971,280.923798 
	C209.079971,280.923798 208.954315,281.051727 208.892181,281.118347 
	C207.588516,280.228027 205.172592,279.082581 205.291153,278.343903 
	C206.242264,272.417694 201.428253,270.017700 198.448318,266.208221 
	C195.804153,267.062714 192.826294,268.732208 191.028809,264.470764 
z"/>
<path fill="#D39861" opacity="1.000000" stroke="none" 
	d="
M289.087524,154.236130 
	C303.163483,153.950943 317.126709,153.965378 331.555542,153.909729 
	C332.487488,154.144974 332.953735,154.450302 333.665649,154.890472 
	C333.981201,155.446274 334.051117,155.867233 334.064972,156.642670 
	C334.008942,156.997147 333.930725,157.067459 333.700836,157.044357 
	C333.470947,157.021255 333.009186,157.003265 332.649200,156.825836 
	C328.407043,156.119064 324.524811,155.145554 320.642670,155.145889 
	C310.121307,155.146774 299.599976,155.560913 289.078613,155.811188 
	C289.043976,155.386032 289.009369,154.960892 289.087524,154.236130 
z"/>
<path fill="#D39A63" opacity="1.000000" stroke="none" 
	d="
M215.022522,154.147827 
	C230.993927,154.080841 246.965332,154.013870 263.498810,154.176147 
	C264.060883,154.405396 264.225433,154.848907 263.907318,154.913910 
	C262.829529,155.348633 262.069855,155.718353 260.867798,156.009323 
	C258.299103,155.640076 256.174377,155.112503 254.046173,155.098038 
	C241.383743,155.011963 228.720520,155.044510 215.844040,154.941147 
	C215.356735,154.674698 215.154068,154.442276 215.022522,154.147827 
z"/>
<path fill="#240201" opacity="1.000000" stroke="none" 
	d="
M166.141449,255.093079 
	C173.523148,250.006424 176.513351,250.614197 182.277313,258.420410 
	C181.435074,258.707520 180.110184,259.059601 179.573975,258.561951 
	C175.717300,254.982391 171.568436,253.072159 166.141449,255.093079 
z"/>
<path fill="#D39861" opacity="1.000000" stroke="none" 
	d="
M208.740662,193.906570 
	C208.740662,193.906570 208.507248,193.871277 208.326370,193.571365 
	C208.058441,193.086929 207.971405,192.902390 207.884338,192.717865 
	C207.902786,182.752701 207.862885,172.786850 207.983795,162.822922 
	C208.011459,160.543823 208.593613,158.271454 209.299423,155.839813 
	C209.678299,155.683624 209.989197,155.989700 209.979950,156.424072 
	C209.941193,168.529831 209.911713,180.201202 209.630035,192.042816 
	C209.165451,192.777573 208.953064,193.342072 208.740662,193.906570 
z"/>
<path fill="#BE120F" opacity="1.000000" stroke="none" 
	d="
M280.425903,143.769348 
	C279.660950,150.063263 277.114319,151.957809 269.268860,151.908524 
	C268.816711,151.844864 268.805878,151.380966 269.289215,151.153610 
	C272.674744,149.677734 277.011780,150.341843 277.141785,145.397964 
	C278.125122,144.858246 279.108490,144.318527 280.425903,143.769348 
z"/>
<path fill="#240201" opacity="1.000000" stroke="none" 
	d="
M305.403931,135.012512 
	C308.146423,131.787109 311.290375,128.575439 314.726929,125.195084 
	C314.515503,131.797104 311.949951,134.581421 305.403931,135.012512 
z"/>
<path fill="#240201" opacity="1.000000" stroke="none" 
	d="
M145.253983,263.929871 
	C147.709213,261.668915 150.530289,259.398499 153.703934,257.161621 
	C151.244278,259.436920 148.432053,261.678650 145.253983,263.929871 
z"/>
<path fill="#7B1A1E" opacity="1.000000" stroke="none" 
	d="
M276.804016,145.427673 
	C277.011780,150.341843 272.674744,149.677734 269.398010,150.948700 
	C271.504425,149.133209 273.985352,147.295288 276.804016,145.427673 
z"/>
<path fill="#A21115" opacity="1.000000" stroke="none" 
	d="
M197.978134,201.953613 
	C197.978134,201.953613 197.544159,202.041016 197.019409,202.036026 
	C196.290726,201.997055 196.086807,201.963089 195.882874,201.929108 
	C198.630859,199.937027 201.378860,197.944962 204.546814,195.963226 
	C204.966766,195.973557 205.097214,196.132080 204.921936,196.383820 
	C203.838425,197.430878 202.930206,198.226212 202.021988,199.021545 
	C202.021988,199.021545 202.003296,199.000168 201.784973,199.106567 
	C201.286880,199.401138 201.093903,199.655197 200.987671,199.975189 
	C200.987671,199.975189 200.996460,199.999634 200.693100,200.018738 
	C199.934769,200.366241 199.479782,200.694626 199.024811,201.023010 
	C199.024811,201.023010 199.004333,201.000153 198.786530,201.104767 
	C198.286179,201.389465 198.089325,201.637543 197.978134,201.953613 
z"/>
<path fill="#240201" opacity="1.000000" stroke="none" 
	d="
M336.680176,97.029099 
	C334.984467,98.709229 332.891754,100.369949 330.472809,102.122658 
	C330.091187,98.002693 333.024872,97.314819 336.680176,97.029099 
z"/>
<path fill="#240201" opacity="1.000000" stroke="none" 
	d="
M320.645813,110.001343 
	C318.928741,111.673912 316.844086,113.344177 314.417694,115.075409 
	C316.143372,113.423935 318.210785,111.711494 320.645813,110.001343 
z"/>
<path fill="#240201" opacity="1.000000" stroke="none" 
	d="
M156.215408,257.219543 
	C158.412796,256.357941 160.851517,255.783005 163.678436,255.253387 
	C161.529999,256.034546 158.993378,256.770386 156.215408,257.219543 
z"/>
<path fill="#BE120F" opacity="1.000000" stroke="none" 
	d="
M261.310181,156.088089 
	C262.069855,155.718353 262.829529,155.348633 264.076111,154.777130 
	C264.785309,154.345703 264.877228,154.072083 264.838806,153.754456 
	C265.057526,153.508347 265.314148,153.311661 266.166382,153.108276 
	C267.160400,153.049286 267.596741,153.046478 268.033051,153.043671 
	C265.985596,154.356232 263.938110,155.668793 261.538422,156.759369 
	C261.186188,156.537399 261.310181,156.088089 261.310181,156.088089 
z"/>
<path fill="#240201" opacity="1.000000" stroke="none" 
	d="
M298.328857,143.956207 
	C299.376434,142.728882 300.786865,141.480606 302.500305,140.084381 
	C304.622375,144.548889 299.709290,142.239365 298.328857,143.956207 
z"/>
<path fill="#BE120F" opacity="1.000000" stroke="none" 
	d="
M289.000244,139.020126 
	C287.609497,140.031235 286.218750,141.042358 284.423218,142.033218 
	C284.018433,142.012970 283.927368,141.905746 284.067078,141.666504 
	C284.460907,140.940933 284.714996,140.454605 284.969086,139.968262 
	C285.470062,139.664764 285.971008,139.361252 287.089355,139.047089 
	C288.137909,139.030991 288.569092,139.025558 289.000244,139.020126 
z"/>
<path fill="#BE120F" opacity="1.000000" stroke="none" 
	d="
M305.492065,124.945137 
	C306.600342,127.690872 305.251953,128.752380 302.362122,128.675278 
	C302.006439,127.922043 302.002136,127.491531 301.997833,127.061020 
	C302.234558,126.824867 302.471252,126.588715 303.221008,126.156883 
	C304.320068,125.622520 304.906067,125.283829 305.492065,124.945137 
z"/>
<path fill="#240201" opacity="1.000000" stroke="none" 
	d="
M321.328979,114.960495 
	C322.091187,113.677055 323.198792,112.365738 324.643677,111.005737 
	C323.878754,112.282242 322.776581,113.607430 321.328979,114.960495 
z"/>
<path fill="#BE120F" opacity="1.000000" stroke="none" 
	d="
M301.005890,130.011810 
	C299.519043,130.977066 298.032196,131.942307 296.153748,132.794861 
	C296.053650,132.242462 296.345123,131.802734 297.142700,131.192596 
	C298.100098,130.688507 298.551422,130.354828 299.002747,130.021149 
	C299.002747,130.021149 299.004242,129.995239 299.344116,130.026520 
	C300.124603,130.042465 300.565247,130.027130 301.005890,130.011810 
z"/>
<path fill="#D39861" opacity="1.000000" stroke="none" 
	d="
M214.635437,154.074280 
	C215.154068,154.442276 215.356735,154.674698 215.624557,155.160202 
	C213.742126,155.646774 211.865662,155.818237 209.989197,155.989700 
	C209.989197,155.989700 209.678299,155.683624 209.538879,155.514618 
	C211.015747,154.897339 212.632050,154.449036 214.635437,154.074280 
z"/>
<path fill="#240201" opacity="1.000000" stroke="none" 
	d="
M326.372375,110.008774 
	C327.110016,109.015060 328.212799,108.019356 329.639648,106.975952 
	C328.888306,107.954430 327.812927,108.980606 326.372375,110.008774 
z"/>
<path fill="#A21115" opacity="1.000000" stroke="none" 
	d="
M207.602112,192.879227 
	C207.971405,192.902390 208.058441,193.086929 208.208344,193.571793 
	C207.951721,194.406586 207.632263,194.941040 206.849579,195.750183 
	C205.956635,196.060608 205.526932,196.096344 205.097214,196.132080 
	C205.097214,196.132080 204.966766,195.973557 204.898865,195.895523 
	C205.660614,194.891861 206.490250,193.966232 207.602112,192.879227 
z"/>
<path fill="#7B1A1E" opacity="1.000000" stroke="none" 
	d="
M301.003235,130.005722 
	C300.565247,130.027130 300.124603,130.042465 299.354370,130.034943 
	C299.799347,129.050354 300.573914,128.088608 301.673157,127.093948 
	C302.002136,127.491531 302.006439,127.922043 302.006836,128.676331 
	C302.002869,129.000122 302.000000,129.000000 301.773010,129.098541 
	C301.262939,129.396286 301.084412,129.664993 301.010529,130.003235 
	C301.010529,130.003235 301.000549,129.999649 301.003235,130.005722 
z"/>
<path fill="#240201" opacity="1.000000" stroke="none" 
	d="
M296.131592,146.878174 
	C296.310760,145.997894 296.859253,145.121933 297.691376,144.107880 
	C297.483643,144.940689 296.992279,145.911591 296.131592,146.878174 
z"/>
<path fill="#BE120F" opacity="1.000000" stroke="none" 
	d="
M284.065491,142.065247 
	C283.248596,142.723053 282.384674,143.328583 281.160828,143.846863 
	C281.064178,143.289276 281.327454,142.818924 282.102661,142.171234 
	C283.052216,141.964493 283.489807,141.935120 283.927368,141.905746 
	C283.927368,141.905746 284.018433,142.012970 284.065491,142.065247 
z"/>
<path fill="#240201" opacity="1.000000" stroke="none" 
	d="
M317.613342,121.085480 
	C317.700806,120.488014 318.086090,119.853806 318.740021,119.103622 
	C318.642853,119.674683 318.277008,120.361710 317.613342,121.085480 
z"/>
<path fill="#A21115" opacity="1.000000" stroke="none" 
	d="
M151.991959,184.010590 
	C151.870209,183.703033 151.682190,183.443512 151.209717,182.800018 
	C150.942230,181.963501 150.892883,181.558975 150.843552,181.154449 
	C150.843552,181.154449 150.982574,181.016541 151.052399,180.947235 
	C151.771317,181.656876 152.420425,182.435852 153.107635,183.540024 
	C153.145767,183.865234 153.002274,183.998993 152.716782,184.019958 
	C152.431290,184.040924 151.991959,184.010590 151.991959,184.010590 
z"/>
<path fill="#7B1A1E" opacity="1.000000" stroke="none" 
	d="
M284.067078,141.666504 
	C283.489807,141.935120 283.052216,141.964493 282.286346,141.964203 
	C282.737091,141.287155 283.516113,140.639786 284.632141,139.980347 
	C284.714996,140.454605 284.460907,140.940933 284.067078,141.666504 
z"/>
<path fill="#7B1A1E" opacity="1.000000" stroke="none" 
	d="
M289.129700,138.757553 
	C288.569092,139.025558 288.137909,139.030991 287.386536,139.002686 
	C287.795532,138.286316 288.524780,137.603683 289.587006,136.909058 
	C289.699677,137.429672 289.479401,137.962326 289.129700,138.757553 
z"/>
<path fill="#BE120F" opacity="1.000000" stroke="none" 
	d="
M294.918732,133.961121 
	C294.117523,134.610382 293.316345,135.259613 292.149841,135.812408 
	C292.084747,135.273560 292.384949,134.831161 293.191284,134.208466 
	C294.104553,134.005829 294.511658,133.983475 294.918732,133.961121 
z"/>
<path fill="#BE120F" opacity="1.000000" stroke="none" 
	d="
M195.647980,202.003693 
	C196.086807,201.963089 196.290726,201.997055 196.802185,202.078552 
	C196.619629,202.730270 196.129547,203.334488 195.326996,203.981903 
	C195.025513,203.667099 195.036499,203.309113 195.053375,202.686340 
	C195.059280,202.421555 195.413071,202.078293 195.647980,202.003693 
z"/>
<path fill="#240201" opacity="1.000000" stroke="none" 
	d="
M319.592072,117.000839 
	C319.649048,116.415131 319.989563,115.746948 320.659210,115.031143 
	C320.617432,115.628464 320.246521,116.273415 319.592072,117.000839 
z"/>
<path fill="#240201" opacity="1.000000" stroke="none" 
	d="
M315.059937,123.377945 
	C315.493774,123.002220 315.901306,122.953911 316.615540,122.882660 
	C316.510040,123.548767 316.097870,124.237808 315.357544,124.971756 
	C315.030823,124.579552 315.032257,124.142456 315.059937,123.377945 
z"/>
<path fill="#240201" opacity="1.000000" stroke="none" 
	d="
M185.173950,260.004395 
	C185.824234,260.197906 186.438812,260.752533 187.070801,261.639465 
	C186.438202,261.436371 185.788208,260.900909 185.173950,260.004395 
z"/>
<path fill="#7B1A1E" opacity="1.000000" stroke="none" 
	d="
M305.450317,124.815292 
	C304.906067,125.283829 304.320068,125.622520 303.396545,125.977737 
	C303.590668,125.426300 304.122345,124.858322 304.979736,124.361633 
	C305.305420,124.432915 305.408569,124.685440 305.450317,124.815292 
z"/>
<path fill="#7B1A1E" opacity="1.000000" stroke="none" 
	d="
M268.029938,153.029877 
	C267.596741,153.046478 267.160400,153.049286 266.398376,153.034058 
	C266.489166,152.661346 266.905701,152.306671 267.656555,152.210114 
	C268.009033,152.653244 268.027161,152.838242 268.045288,153.023239 
	C268.045288,153.023239 268.026825,153.016098 268.029938,153.029877 
z"/>
<path fill="#7B1A1E" opacity="1.000000" stroke="none" 
	d="
M294.935303,133.960419 
	C294.511658,133.983475 294.104553,134.005829 293.392395,134.017822 
	C293.464172,133.625153 293.841003,133.242859 294.556458,133.109222 
	C294.920013,133.550751 294.944977,133.743637 294.969940,133.936539 
	C294.969940,133.936539 294.951843,133.959732 294.935303,133.960419 
z"/>
<path fill="#7B1A1E" opacity="1.000000" stroke="none" 
	d="
M298.705383,130.000000 
	C298.551422,130.354828 298.100098,130.688507 297.353333,131.018555 
	C297.507965,130.669556 297.957977,130.324203 298.705383,130.000000 
z"/>
<path fill="#BE120F" opacity="1.000000" stroke="none" 
	d="
M291.510010,135.828461 
	C291.592163,136.107574 291.383789,136.438629 290.863159,136.797119 
	C290.773743,136.509857 290.996613,136.195129 291.510010,135.828461 
z"/>
<path fill="#BE120F" opacity="1.000000" stroke="none" 
	d="
M295.215210,133.812866 
	C294.944977,133.743637 294.920013,133.550751 294.835754,133.071243 
	C294.776398,132.784607 295.237457,132.624954 295.478638,132.646790 
	C295.633331,133.008820 295.546906,133.349014 295.215210,133.812866 
z"/>
<path fill="#240201" opacity="1.000000" stroke="none" 
	d="
M189.139587,263.470703 
	C189.334991,263.213348 189.628357,263.292297 189.999588,263.736145 
	C189.802292,263.951904 189.522324,263.853912 189.139587,263.470703 
z"/>
<path fill="#240201" opacity="1.000000" stroke="none" 
	d="
M334.077820,281.091583 
	C333.985107,281.432861 333.788605,281.674347 333.336609,281.992920 
	C333.136383,282.114960 333.009277,282.001038 332.998291,281.721954 
	C332.987305,281.442871 333.040955,280.995300 333.022675,280.989899 
	C333.004395,280.984497 333.001251,281.022552 333.235382,281.024109 
	C333.469513,281.025665 333.928101,280.930725 333.928101,280.930725 
	C333.928101,280.930725 334.029266,281.036743 334.077820,281.091583 
z"/>
<path fill="#BE120F" opacity="1.000000" stroke="none" 
	d="
M307.554626,122.701950 
	C307.645172,122.957939 307.448029,123.339096 306.919312,123.787598 
	C306.814178,123.512329 307.040588,123.169724 307.554626,122.701950 
z"/>
<path fill="#7B1A1E" opacity="1.000000" stroke="none" 
	d="
M309.775024,120.193878 
	C309.923981,120.476456 309.731110,120.711792 309.194702,120.900925 
	C309.063141,120.633125 309.257141,120.397102 309.775024,120.193878 
z"/>
<path fill="#240201" opacity="1.000000" stroke="none" 
	d="
M324.678192,107.044952 
	C324.834808,107.275780 324.681915,107.512985 324.185425,107.701195 
	C324.090820,107.486717 324.266418,107.286430 324.678192,107.044952 
z"/>
<path fill="#240201" opacity="1.000000" stroke="none" 
	d="
M326.719482,105.073700 
	C326.878662,105.310814 326.710724,105.573814 326.195984,105.836166 
	C326.070587,105.608124 326.251617,105.362823 326.719482,105.073700 
z"/>
<path fill="#240201" opacity="1.000000" stroke="none" 
	d="
M303.480286,137.868332 
	C303.203156,137.660614 303.283600,137.374908 303.760101,137.042389 
	C303.967957,137.249496 303.861847,137.514420 303.480286,137.868332 
z"/>
<path fill="#BE120F" opacity="1.000000" stroke="none" 
	d="
M268.276306,152.894501 
	C268.027161,152.838242 268.009033,152.653244 267.943420,152.193222 
	C268.055023,151.866562 268.214142,151.814926 268.622528,151.785172 
	C268.750336,152.126617 268.628845,152.446198 268.276306,152.894501 
z"/>
<path fill="#7B1A1E" opacity="1.000000" stroke="none" 
	d="
M264.583191,153.766693 
	C264.877228,154.072083 264.785309,154.345703 264.394226,154.712128 
	C264.225433,154.848907 264.060883,154.405396 263.958252,154.191315 
	C264.012939,153.911133 264.170227,153.845032 264.583191,153.766693 
z"/>
<path fill="#F69620" opacity="1.000000" stroke="none" 
	d="
M288.767609,155.978516 
	C299.599976,155.560913 310.121307,155.146774 320.642670,155.145889 
	C324.524811,155.145554 328.407043,156.119064 332.645203,157.190109 
	C333.331360,158.821701 333.661591,159.911591 333.995667,161.000916 
	C333.999512,161.000336 333.994232,161.009460 333.987122,161.477478 
	C333.995514,200.982208 334.011017,240.018906 334.026520,279.055603 
	C334.026520,279.055603 333.994141,279.010010 333.754639,279.161072 
	C333.343872,279.882263 333.172577,280.452393 333.001251,281.022552 
	C333.001251,281.022552 333.004395,280.984497 332.551392,280.960510 
	C293.424072,280.935455 254.749771,280.934357 215.960327,280.779205 
	C215.538467,280.727509 215.231766,280.829865 214.510986,280.930237 
	C212.715912,280.954773 211.334915,280.981262 209.953903,281.007721 
	C209.953903,281.007721 210.001129,280.992706 210.012894,280.626953 
	C209.730011,277.888824 209.435364,275.516510 209.140701,273.144165 
	C208.768524,272.579559 208.396332,272.014923 208.344330,270.838654 
	C208.760803,255.304749 208.863007,240.382553 208.923721,225.460159 
	C208.925476,225.031052 208.487122,224.600159 208.253967,224.170090 
	C208.217255,223.985413 208.180542,223.800751 208.118591,223.335602 
	C208.093353,223.055115 208.228058,222.776215 208.395416,222.546417 
	C208.562775,222.316605 208.896301,222.140808 208.896301,222.140808 
	C216.901718,216.284973 224.981644,210.527435 232.885117,204.537109 
	C237.771332,200.833664 242.389084,196.776031 247.525101,193.166748 
	C246.896179,195.469727 245.699371,197.416061 244.871689,199.508408 
	C240.836670,209.708618 236.957184,219.970444 232.910034,230.165771 
	C229.981979,237.541901 226.824280,244.827026 223.912888,252.209457 
	C223.501556,253.252487 223.427216,254.990265 224.026428,255.764404 
	C225.810181,258.068909 235.646851,257.692322 238.229370,255.310913 
	C238.418503,255.154160 238.851624,254.922241 239.212860,254.901962 
	C242.728729,248.478973 245.909393,242.088867 249.024948,235.667191 
	C250.231598,233.180023 251.290833,230.621338 252.417236,228.095230 
	C253.187286,228.323517 253.957352,228.551788 254.727402,228.780060 
	C253.523819,234.913223 251.980728,241.006470 251.253357,247.195602 
	C250.862839,250.518463 251.096619,254.380798 252.503387,257.298279 
	C253.588898,259.549530 263.602295,257.775574 266.258850,255.294983 
	C266.640686,255.091293 266.807861,255.039078 267.367371,255.001068 
	C271.317688,254.707275 271.167694,252.311630 270.868896,249.808289 
	C271.014038,249.866058 270.731415,249.729675 271.097534,249.779846 
	C274.300476,246.401794 277.259491,243.065964 279.940613,239.520020 
	C282.767426,235.781433 285.328949,231.842239 288.016266,228.395538 
	C287.897095,229.935532 288.022491,231.177628 287.597626,232.188431 
	C284.878571,238.657349 282.027130,245.070511 279.251709,251.516022 
	C278.868835,252.405212 278.186157,253.549301 278.454712,254.274567 
	C280.692230,260.316986 286.201172,256.375549 290.030426,257.789886 
	C291.982635,258.510925 294.951721,258.488831 294.829590,254.779938 
	C294.930786,254.822784 294.713593,254.789276 295.076813,254.725677 
	C296.057617,254.119766 296.954834,253.698914 297.251038,253.016968 
	C302.096832,241.862000 306.859680,230.671051 311.657013,219.494965 
	C313.713837,214.703323 315.792358,209.920868 317.887207,205.145737 
	C320.473602,199.250061 323.266022,193.434723 325.563690,187.429459 
	C326.138824,185.926193 325.548126,183.627548 324.746155,182.082138 
	C324.290131,181.203384 322.052612,180.405670 321.077362,180.777603 
	C315.071198,183.068237 309.226105,182.349991 302.325928,180.067902 
	C293.477844,192.597046 284.482391,205.334839 275.486969,218.072647 
	C275.016785,217.841492 274.546631,217.610352 274.076447,217.379196 
	C274.076447,215.434250 273.777405,213.433289 274.129395,211.554260 
	C275.494202,204.268494 277.015778,197.010666 278.575317,189.763168 
	C280.093201,182.709396 278.125397,180.711929 271.070190,181.738037 
	C268.669525,182.087189 265.002472,183.631851 264.902252,178.707565 
	C270.190186,172.757187 275.478119,166.806808 281.242920,160.504944 
	C282.162537,159.787125 282.605255,159.420807 283.047974,159.054489 
	C283.047974,159.054489 283.044189,159.036453 283.054565,159.050018 
	C284.862122,158.091003 286.659363,157.118423 288.767609,155.978516 
z"/>
<path fill="#FDFAF0" opacity="1.000000" stroke="none" 
	d="
M266.975067,254.986877 
	C266.807861,255.039078 266.640686,255.091293 265.801697,255.191193 
	C260.922150,255.238892 256.714386,255.238892 252.063370,255.238892 
	C253.863113,244.218796 255.500717,234.191467 257.346954,223.849487 
	C257.721710,222.031845 257.887848,220.528839 258.025726,219.017288 
	C257.997467,219.008743 258.048920,219.040527 258.239258,218.842773 
	C258.461914,218.129761 258.494232,217.614517 258.657837,216.730194 
	C258.829224,215.581665 258.869263,214.802231 259.023071,213.661438 
	C259.456696,211.450729 259.776611,209.601364 260.096497,207.751984 
	C259.697815,207.607178 259.299133,207.462372 258.900452,207.317551 
	C257.978607,209.567856 257.056732,211.818161 256.093872,214.071472 
	C256.052856,214.074493 256.086212,214.149689 255.854584,214.294495 
	C255.503387,214.944778 255.383804,215.450226 255.144196,216.239975 
	C254.950302,216.927856 254.876434,217.331467 254.539658,217.954010 
	C253.809219,219.428909 253.341705,220.684860 252.656631,222.214050 
	C247.909943,233.298965 243.380783,244.110596 238.851624,254.922241 
	C238.851624,254.922241 238.418503,255.154160 237.778793,255.187561 
	C233.243591,255.220963 229.348099,255.220963 224.870941,255.220963 
	C225.461517,253.347687 225.678986,252.404266 226.048325,251.524612 
	C231.189789,239.278732 236.396118,227.059906 241.494171,214.796066 
	C245.050934,206.239944 248.466324,197.625061 251.944870,189.036407 
	C254.381775,187.003998 256.818665,184.971573 260.044739,182.971863 
	C266.089233,183.004578 271.344513,183.004578 277.240082,183.004578 
	C274.853577,198.081558 272.621033,212.186020 270.388458,226.290482 
	C273.003540,224.912979 274.699310,223.259308 276.036621,221.354019 
	C284.163818,209.775146 292.170837,198.111740 300.332611,186.557510 
	C301.318237,185.162231 302.943237,183.352737 304.357117,183.274475 
	C310.751404,182.920517 317.176270,183.119751 324.643433,183.119751 
	C322.648712,188.055389 321.099274,192.017334 319.453888,195.939011 
	C311.220947,215.561569 302.962860,235.173569 294.713623,254.789276 
	C294.713593,254.789276 294.930786,254.822784 294.394623,254.872086 
	C289.649261,254.921387 285.440063,254.921387 280.170471,254.921387 
	C282.508148,249.355270 284.572357,244.708221 286.414459,239.974747 
	C288.077911,235.700226 289.498444,231.331177 291.085602,226.825577 
	C291.145081,226.647339 291.178711,226.273071 291.401611,226.225006 
	C291.624512,226.176941 292.000702,225.919189 292.243317,225.767349 
	C292.643372,225.079788 292.800812,224.544083 293.047699,223.849579 
	C293.137146,223.690781 293.178101,223.328583 293.452118,223.092834 
	C295.044189,219.534500 296.362244,216.211884 297.680298,212.889267 
	C297.104523,212.605957 296.528748,212.322647 295.952972,212.039337 
	C294.845856,213.876221 293.738739,215.713104 292.615143,217.591171 
	C292.598663,217.632370 292.588409,217.720505 292.293549,217.845306 
	C291.465210,218.912704 290.931763,219.855316 290.271851,220.831970 
	C290.145355,220.866013 290.010254,221.090469 289.760254,221.238007 
	C289.312988,221.912796 289.115662,222.440063 288.824829,223.095428 
	C288.731293,223.223511 288.682404,223.536957 288.372009,223.684402 
	C282.284882,232.464447 276.508148,241.097061 270.731415,249.729675 
	C270.731415,249.729675 271.014038,249.866058 270.567474,249.918030 
	C269.072296,251.642288 268.023682,253.314575 266.975067,254.986877 
z"/>
<path fill="#F69423" opacity="1.000000" stroke="none" 
	d="
M209.979950,156.424072 
	C211.865662,155.818237 213.742126,155.646774 215.838074,155.256256 
	C228.720520,155.044510 241.383743,155.011963 254.046173,155.098038 
	C256.174377,155.112503 258.299103,155.640076 260.867798,156.009323 
	C261.310181,156.088089 261.186188,156.537399 261.168030,156.769623 
	C261.149902,157.001831 261.033386,157.003250 260.721527,157.153839 
	C259.555908,158.155350 258.702118,159.006241 257.848358,159.857147 
	C257.848358,159.857147 257.894958,159.944839 257.601746,159.920090 
	C256.819061,160.238571 256.329651,160.581802 255.840210,160.925018 
	C255.535156,160.966736 255.279236,161.101654 254.627350,161.623123 
	C251.453415,163.925369 248.724579,165.934280 245.995758,167.943176 
	C245.995758,167.943176 245.965271,167.957397 245.622070,168.025238 
	C243.802292,169.343964 242.325714,170.594864 240.849136,171.845749 
	C240.849136,171.845749 240.878189,171.940689 240.599701,171.915741 
	C239.868027,172.243759 239.414841,172.596725 238.961639,172.949677 
	C238.961639,172.949677 238.976578,172.996948 238.627228,173.043671 
	C234.124527,176.324020 229.971176,179.557648 225.817810,182.791290 
	C225.817810,182.791290 225.801468,182.895798 225.499023,182.868240 
	C224.121796,183.541672 223.047028,184.242661 221.972260,184.943665 
	C221.972260,184.943665 221.974823,184.989227 221.626480,185.033600 
	C219.731216,186.329880 218.184296,187.581802 216.637390,188.833725 
	C216.637390,188.833725 216.286102,188.857407 215.791382,188.981476 
	C213.491852,190.027878 211.687042,190.950241 209.882233,191.872589 
	C209.911713,180.201202 209.941193,168.529831 209.979950,156.424072 
z"/>
<path fill="#E6A249" opacity="1.000000" stroke="none" 
	d="
M295.076843,254.725693 
	C302.962860,235.173569 311.220947,215.561569 319.453888,195.939011 
	C321.099274,192.017334 322.648712,188.055389 324.643433,183.119751 
	C317.176270,183.119751 310.751404,182.920517 304.357117,183.274475 
	C302.943237,183.352737 301.318237,185.162231 300.332611,186.557510 
	C292.170837,198.111740 284.163818,209.775146 276.036621,221.354019 
	C274.699310,223.259308 273.003540,224.912979 270.388458,226.290482 
	C272.621033,212.186020 274.853577,198.081558 277.240082,183.004578 
	C271.344513,183.004578 266.089233,183.004578 260.380219,182.874863 
	C261.368195,181.467453 262.809875,180.189758 264.576904,178.809814 
	C265.002472,183.631851 268.669525,182.087189 271.070190,181.738037 
	C278.125397,180.711929 280.093201,182.709396 278.575317,189.763168 
	C277.015778,197.010666 275.494202,204.268494 274.129395,211.554260 
	C273.777405,213.433289 274.076447,215.434250 274.076447,217.379196 
	C274.546631,217.610352 275.016785,217.841492 275.486969,218.072647 
	C284.482391,205.334839 293.477844,192.597046 302.325928,180.067902 
	C309.226105,182.349991 315.071198,183.068237 321.077362,180.777603 
	C322.052612,180.405670 324.290131,181.203384 324.746155,182.082138 
	C325.548126,183.627548 326.138824,185.926193 325.563690,187.429459 
	C323.266022,193.434723 320.473602,199.250061 317.887207,205.145737 
	C315.792358,209.920868 313.713837,214.703323 311.657013,219.494965 
	C306.859680,230.671051 302.096832,241.862000 297.251038,253.016968 
	C296.954834,253.698914 296.057617,254.119766 295.076843,254.725693 
z"/>
<path fill="#E8A34A" opacity="1.000000" stroke="none" 
	d="
M251.615402,189.065094 
	C248.466324,197.625061 245.050934,206.239944 241.494171,214.796066 
	C236.396118,227.059906 231.189789,239.278732 226.048325,251.524612 
	C225.678986,252.404266 225.461517,253.347687 224.870941,255.220963 
	C229.348099,255.220963 233.243591,255.220963 237.589661,255.344299 
	C235.646851,257.692322 225.810181,258.068909 224.026428,255.764404 
	C223.427216,254.990265 223.501556,253.252487 223.912888,252.209457 
	C226.824280,244.827026 229.981979,237.541901 232.910034,230.165771 
	C236.957184,219.970444 240.836670,209.708618 244.871689,199.508408 
	C245.699371,197.416061 246.896179,195.469727 247.856995,193.068344 
	C248.956085,191.484985 250.121002,190.289368 251.615402,189.065094 
z"/>
<path fill="#BE120F" opacity="1.000000" stroke="none" 
	d="
M226.186829,182.824753 
	C229.971176,179.557648 234.124527,176.324020 238.612976,173.020142 
	C234.817322,176.252655 230.686584,179.555435 226.186829,182.824753 
z"/>
<path fill="#BE120F" opacity="1.000000" stroke="none" 
	d="
M246.364548,167.954529 
	C248.724579,165.934280 251.453415,163.925369 254.514526,161.812653 
	C252.142334,163.794525 249.437836,165.880188 246.364548,167.954529 
z"/>
<path fill="#BE120F" opacity="1.000000" stroke="none" 
	d="
M209.630035,192.042816 
	C211.687042,190.950241 213.491852,190.027878 215.633698,189.059753 
	C213.813065,190.647659 211.655396,192.281357 209.119202,193.910797 
	C208.953064,193.342072 209.165451,192.777573 209.630035,192.042816 
z"/>
<path fill="#BE120F" opacity="1.000000" stroke="none" 
	d="
M217.031418,188.878418 
	C218.184296,187.581802 219.731216,186.329880 221.609955,185.017822 
	C220.436325,186.279480 218.930878,187.601303 217.031418,188.878418 
z"/>
<path fill="#BE120F" opacity="1.000000" stroke="none" 
	d="
M241.224503,171.886871 
	C242.325714,170.594864 243.802292,169.343964 245.609314,168.036194 
	C244.493118,169.295517 243.046494,170.611740 241.224503,171.886871 
z"/>
<path fill="#BE120F" opacity="1.000000" stroke="none" 
	d="
M157.037018,193.382660 
	C158.010345,194.767242 158.965027,196.550262 159.942429,198.683136 
	C158.982895,197.282364 158.000641,195.531723 157.037018,193.382660 
z"/>
<path fill="#BE120F" opacity="1.000000" stroke="none" 
	d="
M204.921936,196.383820 
	C205.526932,196.096344 205.956635,196.060608 206.711044,196.028488 
	C205.615952,197.025177 204.196167,198.018250 202.399170,199.016418 
	C202.930206,198.226212 203.838425,197.430878 204.921936,196.383820 
z"/>
<path fill="#BE120F" opacity="1.000000" stroke="none" 
	d="
M170.021515,218.404266 
	C170.747742,218.080734 171.541336,218.074570 172.732941,218.099640 
	C172.116943,218.327805 171.102905,218.524734 170.021515,218.404266 
z"/>
<path fill="#BE120F" opacity="1.000000" stroke="none" 
	d="
M258.195068,159.869720 
	C258.702118,159.006241 259.555908,158.155350 260.711243,157.211212 
	C260.189117,158.039413 259.365448,158.960861 258.195068,159.869720 
z"/>
<path fill="#BE120F" opacity="1.000000" stroke="none" 
	d="
M222.327026,184.957581 
	C223.047028,184.242661 224.121796,183.541672 225.528641,182.824432 
	C224.801071,183.529297 223.741425,184.250397 222.327026,184.957581 
z"/>
<path fill="#BE120F" opacity="1.000000" stroke="none" 
	d="
M180.169312,214.233337 
	C180.455719,213.688980 180.921005,213.360657 181.683594,213.008301 
	C181.436676,213.472626 180.892441,213.960983 180.169312,214.233337 
z"/>
<path fill="#BE120F" opacity="1.000000" stroke="none" 
	d="
M150.552124,181.098572 
	C150.892883,181.558975 150.942230,181.963501 151.002472,182.674347 
	C150.378662,182.519974 149.743942,182.059250 149.093384,181.273026 
	C149.471939,180.979233 149.866302,181.010956 150.552124,181.098572 
z"/>
<path fill="#D30C0F" opacity="1.000000" stroke="none" 
	d="
M137.072235,158.268860 
	C137.626984,158.443314 138.207352,158.946060 138.908585,159.715546 
	C138.385574,159.520569 137.741699,159.058868 137.072235,158.268860 
z"/>
<path fill="#BE120F" opacity="1.000000" stroke="none" 
	d="
M183.323059,211.974075 
	C183.511093,211.427994 184.015518,210.839828 184.805466,210.162643 
	C184.607147,210.693069 184.123291,211.312531 183.323059,211.974075 
z"/>
<path fill="#BE120F" opacity="1.000000" stroke="none" 
	d="
M146.993820,176.305740 
	C147.297409,176.476196 147.626465,176.943512 147.972595,177.710938 
	C147.666214,177.541580 147.342758,177.072083 146.993820,176.305740 
z"/>
<path fill="#BE120F" opacity="1.000000" stroke="none" 
	d="
M199.319183,200.998138 
	C199.479782,200.694626 199.934769,200.366241 200.682999,200.009399 
	C200.522018,200.311737 200.067795,200.642517 199.319183,200.998138 
z"/>
<path fill="#BE120F" opacity="1.000000" stroke="none" 
	d="
M159.989685,199.318420 
	C160.284454,199.503906 160.601196,199.984497 160.911591,200.770660 
	C160.607391,200.588684 160.309525,200.101105 159.989685,199.318420 
z"/>
<path fill="#BE120F" opacity="1.000000" stroke="none" 
	d="
M154.980682,189.328033 
	C155.287491,189.477707 155.632477,189.918243 156.006546,190.651581 
	C155.696701,190.502548 155.357788,190.060730 154.980682,189.328033 
z"/>
<path fill="#BE120F" opacity="1.000000" stroke="none" 
	d="
M282.727295,159.070465 
	C282.605255,159.420807 282.162537,159.787125 281.438446,160.243439 
	C281.573608,159.917770 281.990143,159.502106 282.727295,159.070465 
z"/>
<path fill="#BE120F" opacity="1.000000" stroke="none" 
	d="
M256.163239,160.928650 
	C256.329651,160.581802 256.819061,160.238571 257.614624,159.872131 
	C257.442566,160.210037 256.964417,160.571152 256.163239,160.928650 
z"/>
<path fill="#BE120F" opacity="1.000000" stroke="none" 
	d="
M145.985184,173.313889 
	C146.271027,173.504837 146.581909,173.988159 146.878784,174.776611 
	C146.579941,174.589905 146.295074,174.098083 145.985184,173.313889 
z"/>
<path fill="#BE120F" opacity="1.000000" stroke="none" 
	d="
M239.269104,172.941315 
	C239.414841,172.596725 239.868027,172.243759 240.618713,171.869888 
	C240.469666,172.210297 240.023117,172.571609 239.269104,172.941315 
z"/>
<path fill="#BE120F" opacity="1.000000" stroke="none" 
	d="
M144.015869,167.287476 
	C144.297852,167.489227 144.588730,167.985168 144.852966,168.784973 
	C144.559143,168.586426 144.291946,168.084045 144.015869,167.287476 
z"/>
<path fill="#BE120F" opacity="1.000000" stroke="none" 
	d="
M301.233582,129.901505 
	C301.084412,129.664993 301.262939,129.396286 301.772705,129.099991 
	C301.916443,129.335281 301.735535,129.600906 301.233582,129.901505 
z"/>
<path fill="#BE120F" opacity="1.000000" stroke="none" 
	d="
M190.231461,206.915436 
	C190.109467,206.681839 190.307968,206.422150 190.841385,206.156738 
	C190.938583,206.380051 190.730469,206.626175 190.231461,206.915436 
z"/>
<path fill="#D30C0F" opacity="1.000000" stroke="none" 
	d="
M142.113251,164.190598 
	C142.346680,164.070374 142.603806,164.269043 142.882355,164.787964 
	C142.650543,164.904724 142.394928,164.705139 142.113251,164.190598 
z"/>
<path fill="#BE120F" opacity="1.000000" stroke="none" 
	d="
M145.080933,171.224396 
	C145.324127,171.108276 145.574875,171.315979 145.803848,171.865707 
	C145.577377,171.947189 145.346176,171.727356 145.080933,171.224396 
z"/>
<path fill="#A21115" opacity="1.000000" stroke="none" 
	d="
M208.816559,221.961288 
	C208.896301,222.140808 208.562775,222.316605 208.389954,222.391647 
	C208.390381,222.238388 208.563599,222.010071 208.816559,221.961288 
z"/>
<path fill="#BE120F" opacity="1.000000" stroke="none" 
	d="
M152.086334,184.228027 
	C151.991959,184.010590 152.431290,184.040924 152.645538,184.087372 
	C152.859772,184.133820 152.902847,184.614197 152.881256,184.855103 
	C152.582031,184.932709 152.355713,184.715866 152.086334,184.228027 
z"/>
<path fill="#BE120F" opacity="1.000000" stroke="none" 
	d="
M153.216690,188.183701 
	C153.428696,188.084854 153.654083,188.270325 153.929779,188.714020 
	C153.705444,188.854614 153.455444,188.686554 153.216690,188.183701 
z"/>
<path fill="#BE120F" opacity="1.000000" stroke="none" 
	d="
M201.209183,199.877441 
	C201.093903,199.655197 201.286880,199.401138 201.790237,199.118088 
	C201.902237,199.339172 201.707855,199.591324 201.209183,199.877441 
z"/>
<path fill="#BE120F" opacity="1.000000" stroke="none" 
	d="
M169.073807,217.259705 
	C169.294159,217.129410 169.553070,217.308243 169.837097,217.806122 
	C169.620300,217.922165 169.370361,217.736710 169.073807,217.259705 
z"/>
<path fill="#BE120F" opacity="1.000000" stroke="none" 
	d="
M168.104126,216.221725 
	C168.330353,216.101898 168.584793,216.294724 168.861084,216.805099 
	C168.640945,216.913025 168.390747,216.716934 168.104126,216.221725 
z"/>
<path fill="#BE120F" opacity="1.000000" stroke="none" 
	d="
M198.202469,201.864197 
	C198.089325,201.637543 198.286179,201.389465 198.791901,201.117630 
	C198.902573,201.341171 198.706467,201.590805 198.202469,201.864197 
z"/>
<path fill="#0C0C0C" opacity="1.000000" stroke="none" 
	d="
M93.157539,234.004669 
	C93.157539,228.717407 93.157539,223.927734 93.157539,219.210175 
	C99.286644,217.914932 100.858376,218.965927 100.980545,224.549866 
	C101.118530,230.856903 101.179550,237.171646 101.028969,243.477188 
	C100.888344,249.365875 99.982887,250.070953 93.157539,250.160431 
	C93.157539,244.945587 93.157539,239.723923 93.157539,234.004669 
z"/>
<path fill="#131313" opacity="1.000000" stroke="none" 
	d="
M93.138901,201.981201 
	C93.138901,198.050934 93.138901,194.602753 93.138901,191.220917 
	C98.919434,190.018448 100.619720,190.976456 101.106979,196.095444 
	C101.433418,199.524750 101.369553,203.021149 101.146507,206.465912 
	C100.800468,211.810181 99.647614,212.599426 93.138893,212.143967 
	C93.138893,208.958817 93.138893,205.711044 93.138901,201.981201 
z"/>
<path fill="#100202" opacity="1.000000" stroke="none" 
	d="
M206.123962,266.884918 
	C201.165909,260.736694 196.159714,254.626541 191.261612,248.430939 
	C184.654480,240.073563 184.649536,239.982803 193.593033,234.171814 
	C198.031708,231.287796 202.651367,228.682358 207.569519,226.445633 
	C207.958801,238.509171 208.045288,250.078995 207.893723,261.645660 
	C207.870728,263.399536 206.741501,265.138855 206.123962,266.884918 
z"/>
<path fill="#D89B62" opacity="1.000000" stroke="none" 
	d="
M206.026825,267.201263 
	C206.741501,265.138855 207.870728,263.399536 207.893723,261.645660 
	C208.045288,250.078995 207.958801,238.509171 207.926300,226.469299 
	C207.977753,225.591415 208.052841,225.184631 208.190948,224.473969 
	C208.487122,224.600159 208.925476,225.031052 208.923721,225.460159 
	C208.863007,240.382553 208.760803,255.304749 208.380432,270.498016 
	C207.376755,270.109253 206.657150,269.449432 205.869553,268.478271 
	C205.844284,267.950470 205.886993,267.734039 206.026825,267.201263 
z"/>
<path fill="#D69960" opacity="1.000000" stroke="none" 
	d="
M216.075470,280.933258 
	C254.749771,280.934357 293.424072,280.935455 332.569641,280.965912 
	C333.040955,280.995300 332.987305,281.442871 332.936981,281.662567 
	C292.575867,281.919281 252.265091,281.957458 211.954300,281.979797 
	C211.470917,281.980072 210.987427,281.776306 210.228943,281.337769 
	C211.334915,280.981262 212.715912,280.954773 214.798904,280.946198 
	C215.692413,280.953857 215.883942,280.943573 216.075470,280.933258 
z"/>
<path fill="#D69960" opacity="1.000000" stroke="none" 
	d="
M208.927551,273.449280 
	C209.435364,275.516510 209.730011,277.888824 210.011108,280.651642 
	C209.997574,281.042114 209.532333,281.032806 209.306152,280.978302 
	C208.958115,278.533997 208.836258,276.144226 208.927551,273.449280 
z"/>
<path fill="#DB994B" opacity="1.000000" stroke="none" 
	d="
M334.293762,278.729248 
	C334.011017,240.018906 333.995514,200.982208 334.195129,161.473358 
	C334.410248,161.001190 334.826172,161.002121 334.826172,161.002121 
	C334.867706,199.486282 334.911224,237.970459 334.934540,276.454620 
	C334.934906,277.103973 334.690948,277.753448 334.293762,278.729248 
z"/>
<path fill="#D39861" opacity="1.000000" stroke="none" 
	d="
M334.893311,160.651276 
	C334.826172,161.002121 334.410248,161.001190 334.202240,161.005325 
	C333.994232,161.009460 333.999512,161.000336 334.002991,160.607178 
	C333.981262,159.165161 333.955994,158.116318 333.930725,157.067459 
	C333.930725,157.067459 334.008942,156.997147 334.049316,156.963516 
	C334.379913,158.053406 334.670197,159.176910 334.893311,160.651276 
z"/>
<path fill="#DB994B" opacity="1.000000" stroke="none" 
	d="
M333.235382,281.024109 
	C333.172577,280.452393 333.343872,279.882263 333.782532,279.158813 
	C334.032471,279.433441 334.015015,279.861328 333.962830,280.609985 
	C333.928101,280.930725 333.469513,281.025665 333.235382,281.024109 
z"/>
<path fill="#DB994B" opacity="1.000000" stroke="none" 
	d="
M333.700836,157.044357 
	C333.955994,158.116318 333.981262,159.165161 333.999146,160.607758 
	C333.661591,159.911591 333.331360,158.821701 333.005188,157.367538 
	C333.009186,157.003265 333.470947,157.021255 333.700836,157.044357 
z"/>
<path fill="#E6A249" opacity="1.000000" stroke="none" 
	d="
M254.802582,217.735062 
	C254.876434,217.331467 254.950302,216.927856 255.343323,216.075897 
	C255.803711,215.134918 255.944962,214.642303 256.086182,214.149689 
	C256.086212,214.149689 256.052856,214.074493 256.440155,214.053604 
	C257.521393,214.029404 258.215363,214.026093 258.909302,214.022781 
	C258.869263,214.802231 258.829224,215.581665 258.495728,216.928925 
	C258.151215,218.011337 258.100067,218.525940 258.048950,219.040527 
	C258.048920,219.040527 257.997467,219.008743 257.736877,219.269287 
	C257.363647,221.074600 257.251007,222.619354 257.138336,224.164124 
	C255.500717,234.191467 253.863113,244.218796 252.063370,255.238892 
	C256.714386,255.238892 260.922150,255.238892 265.587036,255.342682 
	C263.602295,257.775574 253.588898,259.549530 252.503387,257.298279 
	C251.096619,254.380798 250.862839,250.518463 251.253357,247.195602 
	C251.980728,241.006470 253.523819,234.913223 254.727402,228.780060 
	C253.957352,228.551788 253.187286,228.323517 252.417236,228.095230 
	C251.290833,230.621338 250.231598,233.180023 249.024948,235.667191 
	C245.909393,242.088867 242.728729,248.478973 239.212860,254.901962 
	C243.380783,244.110596 247.909943,233.298965 252.951706,222.035980 
	C253.910400,220.301437 254.356491,219.018250 254.802582,217.735062 
z"/>
<path fill="#E6A249" opacity="1.000000" stroke="none" 
	d="
M291.026123,227.003815 
	C289.498444,231.331177 288.077911,235.700226 286.414459,239.974747 
	C284.572357,244.708221 282.508148,249.355270 280.170471,254.921387 
	C285.440063,254.921387 289.649261,254.921387 294.293457,254.829224 
	C294.951721,258.488831 291.982635,258.510925 290.030426,257.789886 
	C286.201172,256.375549 280.692230,260.316986 278.454712,254.274567 
	C278.186157,253.549301 278.868835,252.405212 279.251709,251.516022 
	C282.027130,245.070511 284.878571,238.657349 287.597626,232.188431 
	C288.022491,231.177628 287.897095,229.935532 288.012848,228.400421 
	C287.999542,228.000458 287.992340,228.007492 288.315643,227.989838 
	C289.434662,227.649414 290.230408,227.326614 291.026123,227.003815 
z"/>
<path fill="#E6A249" opacity="1.000000" stroke="none" 
	d="
M271.097534,249.779846 
	C276.508148,241.097061 282.284882,232.464447 288.447479,224.067261 
	C288.553009,225.537628 288.272675,226.772552 287.992340,228.007492 
	C287.992340,228.007492 287.999542,228.000458 288.002960,227.995575 
	C285.328949,231.842239 282.767426,235.781433 279.940613,239.520020 
	C277.259491,243.065964 274.300476,246.401794 271.097534,249.779846 
z"/>
<path fill="#E6A249" opacity="1.000000" stroke="none" 
	d="
M267.367371,255.001068 
	C268.023682,253.314575 269.072296,251.642288 270.422363,249.860260 
	C271.167694,252.311630 271.317688,254.707275 267.367371,255.001068 
z"/>
<path fill="#DB994B" opacity="1.000000" stroke="none" 
	d="
M215.960327,280.779205 
	C215.883942,280.943573 215.692413,280.953857 215.212967,280.948181 
	C215.231766,280.829865 215.538467,280.727509 215.960327,280.779205 
z"/>
<path fill="#E1AB59" opacity="1.000000" stroke="none" 
	d="
M292.631592,217.549988 
	C293.738739,215.713104 294.845856,213.876221 295.952972,212.039337 
	C296.528748,212.322647 297.104523,212.605957 297.680298,212.889267 
	C296.362244,216.211884 295.044189,219.534500 293.424805,222.692688 
	C292.959503,220.868851 292.795563,219.209427 292.631592,217.549988 
z"/>
<path fill="#DDB16E" opacity="1.000000" stroke="none" 
	d="
M259.023071,213.661438 
	C258.215363,214.026093 257.521393,214.029404 256.481171,214.050598 
	C257.056732,211.818161 257.978607,209.567856 258.900452,207.317551 
	C259.299133,207.462372 259.697815,207.607178 260.096497,207.751984 
	C259.776611,209.601364 259.456696,211.450729 259.023071,213.661438 
z"/>
<path fill="#E6A249" opacity="1.000000" stroke="none" 
	d="
M292.615112,217.591187 
	C292.795563,219.209427 292.959503,220.868851 293.150757,222.928436 
	C293.178101,223.328583 293.137146,223.690781 292.816345,224.013077 
	C292.330566,224.863312 292.165619,225.391251 292.000702,225.919189 
	C292.000702,225.919189 291.624512,226.176941 291.350342,225.858673 
	C290.712433,224.682739 290.348724,223.825089 289.991669,222.654434 
	C290.002289,221.924454 290.006287,221.507462 290.010254,221.090469 
	C290.010254,221.090469 290.145355,220.866013 290.651123,220.788574 
	C291.634064,219.714264 292.111237,218.717392 292.588409,217.720505 
	C292.588409,217.720505 292.598663,217.632370 292.615112,217.591187 
z"/>
<path fill="#F69620" opacity="1.000000" stroke="none" 
	d="
M289.985016,222.967422 
	C290.348724,223.825089 290.712433,224.682739 291.127441,225.906738 
	C291.178711,226.273071 291.145081,226.647339 291.085602,226.825577 
	C290.230408,227.326614 289.434662,227.649414 288.315643,227.989838 
	C288.272675,226.772552 288.553009,225.537628 288.757874,223.919830 
	C288.682404,223.536957 288.731293,223.223511 289.091614,223.113129 
	C289.629578,222.990967 289.807281,222.979187 289.985016,222.967422 
z"/>
<path fill="#DDB16E" opacity="1.000000" stroke="none" 
	d="
M254.539642,217.954010 
	C254.356491,219.018250 253.910400,220.301437 253.169250,221.762711 
	C253.341705,220.684860 253.809219,219.428909 254.539642,217.954010 
z"/>
<path fill="#E1AB59" opacity="1.000000" stroke="none" 
	d="
M292.293549,217.845306 
	C292.111237,218.717392 291.634064,219.714264 290.777588,220.754532 
	C290.931763,219.855316 291.465210,218.912704 292.293549,217.845306 
z"/>
<path fill="#DDB16E" opacity="1.000000" stroke="none" 
	d="
M257.346954,223.849487 
	C257.251007,222.619354 257.363647,221.074600 257.765137,219.277832 
	C257.887848,220.528839 257.721710,222.031845 257.346954,223.849487 
z"/>
<path fill="#E1AB59" opacity="1.000000" stroke="none" 
	d="
M289.991669,222.654434 
	C289.807281,222.979187 289.629578,222.990967 289.185120,222.985031 
	C289.115662,222.440063 289.312988,221.912796 289.760284,221.238007 
	C290.006287,221.507462 290.002289,221.924454 289.991669,222.654434 
z"/>
<path fill="#DDB16E" opacity="1.000000" stroke="none" 
	d="
M258.239258,218.842773 
	C258.100067,218.525940 258.151215,218.011337 258.364441,217.298004 
	C258.494232,217.614517 258.461914,218.129761 258.239258,218.842773 
z"/>
<path fill="#DDB16E" opacity="1.000000" stroke="none" 
	d="
M255.854584,214.294495 
	C255.944962,214.642303 255.803711,215.134918 255.463348,215.791611 
	C255.383804,215.450226 255.503387,214.944778 255.854584,214.294495 
z"/>
<path fill="#E1AB59" opacity="1.000000" stroke="none" 
	d="
M292.243317,225.767349 
	C292.165619,225.391251 292.330566,224.863312 292.726868,224.171875 
	C292.800812,224.544083 292.643372,225.079788 292.243317,225.767349 
z"/>
</svg>